<svg width="494" height="342" viewBox="0 0 494 342" fill="none" xmlns="http://www.w3.org/2000/svg" xmlns:c2pa="http://c2pa.org/manifest"><metadata><c2pa:manifest>AAAWgmp1bWIAAAAeanVtZGMycGEAEQAQgAAAqgA4m3EDYzJwYQAAABZcanVtYgAAAEdqdW1kYzJtYQARABCAAACqADibcQN1cm46YzJwYTowNDdiMzVjZC0yMjU2LTRmMmQtYjU0ZC03NTI3ZjU5NDdiNmMAAAADl2p1bWIAAAApanVtZGMyYXMAEQAQgAAAqgA4m3EDYzJwYS5hc3NlcnRpb25zAAAAALxqdW1iAAAARGp1bWRjYm9yABEAEIAAAKoAOJtxE2MycGEuaW5ncmVkaWVudC52MwAAAAAYYzJzaPNswxwo8UA76Goqgu3/OrQAAABwY2JvcqNpZGM6Zm9ybWF0bWltYWdlL3N2Zyt4bWxqaW5zdGFuY2VJRHgseG1wOmlpZDo2ZWMzMDI0YS01YjVjLTQ4MzEtYjIwYi1hZTE2ZTRjN2UyODNscmVsYXRpb25zaGlwaHBhcmVudE9mAAAB4mp1bWIAAABBanVtZGNib3IAEQAQgAAAqgA4m3ETYzJwYS5hY3Rpb25zLnYyAAAAABhjMnNoYWmpzzpZaLbFBCZa5LRbfAAAAZljYm9yomdhY3Rpb25zgqJmYWN0aW9ua2MycGEub3BlbmVkanBhcmFtZXRlcnOha2luZ3JlZGllbnRzgaJjdXJseC1zZWxmI2p1bWJmPWMycGEuYXNzZXJ0aW9ucy9jMnBhLmluZ3JlZGllbnQudjNkaGFzaFggidImw7yFpyf57NLDgaLUnyCeRf3/xhDSLXy/ViCBLNGkZmFjdGlvbngdY29tLmFudGhyb3BpYy5jbGF1ZGUucHJvdmlkZWRqcGFyYW1ldGVyc6F4H2NvbS5hbnRocm9waWMub3JpZ2luLWNvbmZpZGVuY2VndW5rbm93bmtkZXNjcmlwdGlvbnhmQ2xhdWRlIHByb3ZpZGVkIHRoaXMgZmlsZSBhdCB0aGUgcmVxdWVzdCBvZiBhIHVzZXIgYW5kIG1heSBoYXZlIGNyZWF0ZWQgb3IgbW9kaWZpZWQgdGhlIGZpbGUgY29udGVudHMubXNvZnR3YXJlQWdlbnShZG5hbWVmQ2xhdWRlcmFsbEFjdGlvbnNJbmNsdWRlZPUAAADIanVtYgAAAEBqdW1kY2JvcgARABCAAACqADibcRNjMnBhLmhhc2guZGF0YQAAAAAYYzJzaPHHay7YKmgNct3bDOBnFHQAAACAY2JvcqVjYWxnZnNoYTI1NmNwYWRNAAAAAAAAAAAAAAAAAGRoYXNoWCCW6Vt0cFyYMBvKgy4DjjW0RH99ePbNpZ1vW9HiC9inrGRuYW1lbmp1bWJmIG1hbmlmZXN0amV4Y2x1c2lvbnOBomVzdGFydBiiZmxlbmd0aBkeBAAAAj5qdW1iAAAAJ2p1bWRjMmNsABEAEIAAAKoAOJtxA2MycGEuY2xhaW0udjIAAAACD2Nib3KlY2FsZ2ZzaGEyNTZpc2lnbmF0dXJleE1zZWxmI2p1bWJmPS9jMnBhL3VybjpjMnBhOjA0N2IzNWNkLTIyNTYtNGYyZC1iNTRkLTc1MjdmNTk0N2I2Yy9jMnBhLnNpZ25hdHVyZWppbnN0YW5jZUlEeCx4bXA6aWlkOjJjYzM1ZDIwLTEwNWYtNGQ2ZC1hYWJmLWJhMjBkZmFhYzg4NHJjcmVhdGVkX2Fzc2VydGlvbnODomN1cmx4LXNlbGYjanVtYmY9YzJwYS5hc3NlcnRpb25zL2MycGEuaW5ncmVkaWVudC52M2RoYXNoWCCJ0ibDvIWnJ/ns0sOBotSfIJ5F/f/GENItfL9WIIEs0aJjdXJseCpzZWxmI2p1bWJmPWMycGEuYXNzZXJ0aW9ucy9jMnBhLmFjdGlvbnMudjJkaGFzaFggtogmwqucGMwdLvZWd7YqMGHN8n+AeICRXh72akC1J4eiY3VybHgpc2VsZiNqdW1iZj1jMnBhLmFzc2VydGlvbnMvYzJwYS5oYXNoLmRhdGFkaGFzaFggxuW8Y5CU63MZhn9aRVmTWM+k9MTdrNfbRjU4G7iCvDt0Y2xhaW1fZ2VuZXJhdG9yX2luZm+jZG5hbWVvQW50aHJvcGljIEZpbGVzZ3ZlcnNpb25lMS4wLjBrc3BlY1ZlcnNpb25lMi40LjAAABA4anVtYgAAAChqdW1kYzJjcwARABCAAACqADibcQNjMnBhLnNpZ25hdHVyZQAAABAIY2JvctKEWQISogEmGCFZAgowggIGMIIBjaADAgECAhRA5aAK7sI50L64g/oGQgU9Z1UTADAKBggqhkjOPQQDAzBJMRcwFQYDVQQKEw5BbnRocm9waWMsIFBCQzEuMCwGA1UEAxMlQW50aHJvcGljIENvbnRlbnQgQ3JlZGVudGlhbHMgUm9vdCBDQTAeFw0yNjA4MDcxODQzNTZaFw0yODA4MDYxOTQzNTZaMEQxFzAVBgNVBAoTDkFudGhyb3BpYywgUEJDMSkwJwYDVQQDEyBBbnRocm9waWMgQ2xhdWRlIENvbnRlbnQgU2lnbmluZzBZMBMGByqGSM49AgEGCCqGSM49AwEHA0IABJh6CmvLUBgFFNU0vUKlOVtE6djd17L5SuwX0LemFisBM3dkd/3cyjxFA3Qo5S46fX0/ihY0VZ7mfb9KF703t5OjWDBWMA4GA1UdDwEB/wQEAwIHgDAVBgNVHSUEDjAMBgorBgEEAYPoXgIBMAwGA1UdEwEB/wQCMAAwHwYDVR0jBBgwFoAUzlHiBIFOZFsj+OPEz5o+nMHXXMIwCgYIKoZIzj0EAwMDZwAwZAIwMXMdFJ4BetLLVY7ORuE9noqbbAZOZn/aArXyTwFAZfKrPzxF2vPoJNf1+UCdg1XGAjBwX1zd9WGqYkqmL5SFqw1QySjr1zJfpJM9+1rdDwSPLMOPOjKuiXjoU/pUUeG9RwmhY3BhZFkNngAAAAAAAAAAAAAAAAAAAAAAAAAAAAAAAAAAAAAAAAAAAAAAAAAAAAAAAAAAAAAAAAAAAAAAAAAAAAAAAAAAAAAAAAAAAAAAAAAAAAAAAAAAAAAAAAAAAAAAAAAAAAAAAAAAAAAAAAAAAAAAAAAAAAAAAAAAAAAAAAAAAAAAAAAAAAAAAAAAAAAAAAAAAAAAAAAAAAAAAAAAAAAAAAAAAAAAAAAAAAAAAAAAAAAAAAAAAAAAAAAAAAAAAAAAAAAAAAAAAAAAAAAAAAAAAAAAAAAAAAAAAAAAAAAAAAAAAAAAAAAAAAAAAAAAAAAAAAAAAAAAAAAAAAAAAAAAAAAAAAAAAAAAAAAAAAAAAAAAAAAAAAAAAAAAAAAAAAAAAAAAAAAAAAAAAAAAAAAAAAAAAAAAAAAAAAAAAAAAAAAAAAAAAAAAAAAAAAAAAAAAAAAAAAAAAAAAAAAAAAAAAAAAAAAAAAAAAAAAAAAAAAAAAAAAAAAAAAAAAAAAAAAAAAAAAAAAAAAAAAAAAAAAAAAAAAAAAAAAAAAAAAAAAAAAAAAAAAAAAAAAAAAAAAAAAAAAAAAAAAAAAAAAAAAAAAAAAAAAAAAAAAAAAAAAAAAAAAAAAAAAAAAAAAAAAAAAAAAAAAAAAAAAAAAAAAAAAAAAAAAAAAAAAAAAAAAAAAAAAAAAAAAAAAAAAAAAAAAAAAAAAAAAAAAAAAAAAAAAAAAAAAAAAAAAAAAAAAAAAAAAAAAAAAAAAAAAAAAAAAAAAAAAAAAAAAAAAAAAAAAAAAAAAAAAAAAAAAAAAAAAAAAAAAAAAAAAAAAAAAAAAAAAAAAAAAAAAAAAAAAAAAAAAAAAAAAAAAAAAAAAAAAAAAAAAAAAAAAAAAAAAAAAAAAAAAAAAAAAAAAAAAAAAAAAAAAAAAAAAAAAAAAAAAAAAAAAAAAAAAAAAAAAAAAAAAAAAAAAAAAAAAAAAAAAAAAAAAAAAAAAAAAAAAAAAAAAAAAAAAAAAAAAAAAAAAAAAAAAAAAAAAAAAAAAAAAAAAAAAAAAAAAAAAAAAAAAAAAAAAAAAAAAAAAAAAAAAAAAAAAAAAAAAAAAAAAAAAAAAAAAAAAAAAAAAAAAAAAAAAAAAAAAAAAAAAAAAAAAAAAAAAAAAAAAAAAAAAAAAAAAAAAAAAAAAAAAAAAAAAAAAAAAAAAAAAAAAAAAAAAAAAAAAAAAAAAAAAAAAAAAAAAAAAAAAAAAAAAAAAAAAAAAAAAAAAAAAAAAAAAAAAAAAAAAAAAAAAAAAAAAAAAAAAAAAAAAAAAAAAAAAAAAAAAAAAAAAAAAAAAAAAAAAAAAAAAAAAAAAAAAAAAAAAAAAAAAAAAAAAAAAAAAAAAAAAAAAAAAAAAAAAAAAAAAAAAAAAAAAAAAAAAAAAAAAAAAAAAAAAAAAAAAAAAAAAAAAAAAAAAAAAAAAAAAAAAAAAAAAAAAAAAAAAAAAAAAAAAAAAAAAAAAAAAAAAAAAAAAAAAAAAAAAAAAAAAAAAAAAAAAAAAAAAAAAAAAAAAAAAAAAAAAAAAAAAAAAAAAAAAAAAAAAAAAAAAAAAAAAAAAAAAAAAAAAAAAAAAAAAAAAAAAAAAAAAAAAAAAAAAAAAAAAAAAAAAAAAAAAAAAAAAAAAAAAAAAAAAAAAAAAAAAAAAAAAAAAAAAAAAAAAAAAAAAAAAAAAAAAAAAAAAAAAAAAAAAAAAAAAAAAAAAAAAAAAAAAAAAAAAAAAAAAAAAAAAAAAAAAAAAAAAAAAAAAAAAAAAAAAAAAAAAAAAAAAAAAAAAAAAAAAAAAAAAAAAAAAAAAAAAAAAAAAAAAAAAAAAAAAAAAAAAAAAAAAAAAAAAAAAAAAAAAAAAAAAAAAAAAAAAAAAAAAAAAAAAAAAAAAAAAAAAAAAAAAAAAAAAAAAAAAAAAAAAAAAAAAAAAAAAAAAAAAAAAAAAAAAAAAAAAAAAAAAAAAAAAAAAAAAAAAAAAAAAAAAAAAAAAAAAAAAAAAAAAAAAAAAAAAAAAAAAAAAAAAAAAAAAAAAAAAAAAAAAAAAAAAAAAAAAAAAAAAAAAAAAAAAAAAAAAAAAAAAAAAAAAAAAAAAAAAAAAAAAAAAAAAAAAAAAAAAAAAAAAAAAAAAAAAAAAAAAAAAAAAAAAAAAAAAAAAAAAAAAAAAAAAAAAAAAAAAAAAAAAAAAAAAAAAAAAAAAAAAAAAAAAAAAAAAAAAAAAAAAAAAAAAAAAAAAAAAAAAAAAAAAAAAAAAAAAAAAAAAAAAAAAAAAAAAAAAAAAAAAAAAAAAAAAAAAAAAAAAAAAAAAAAAAAAAAAAAAAAAAAAAAAAAAAAAAAAAAAAAAAAAAAAAAAAAAAAAAAAAAAAAAAAAAAAAAAAAAAAAAAAAAAAAAAAAAAAAAAAAAAAAAAAAAAAAAAAAAAAAAAAAAAAAAAAAAAAAAAAAAAAAAAAAAAAAAAAAAAAAAAAAAAAAAAAAAAAAAAAAAAAAAAAAAAAAAAAAAAAAAAAAAAAAAAAAAAAAAAAAAAAAAAAAAAAAAAAAAAAAAAAAAAAAAAAAAAAAAAAAAAAAAAAAAAAAAAAAAAAAAAAAAAAAAAAAAAAAAAAAAAAAAAAAAAAAAAAAAAAAAAAAAAAAAAAAAAAAAAAAAAAAAAAAAAAAAAAAAAAAAAAAAAAAAAAAAAAAAAAAAAAAAAAAAAAAAAAAAAAAAAAAAAAAAAAAAAAAAAAAAAAAAAAAAAAAAAAAAAAAAAAAAAAAAAAAAAAAAAAAAAAAAAAAAAAAAAAAAAAAAAAAAAAAAAAAAAAAAAAAAAAAAAAAAAAAAAAAAAAAAAAAAAAAAAAAAAAAAAAAAAAAAAAAAAAAAAAAAAAAAAAAAAAAAAAAAAAAAAAAAAAAAAAAAAAAAAAAAAAAAAAAAAAAAAAAAAAAAAAAAAAAAAAAAAAAAAAAAAAAAAAAAAAAAAAAAAAAAAAAAAAAAAAAAAAAAAAAAAAAAAAAAAAAAAAAAAAAAAAAAAAAAAAAAAAAAAAAAAAAAAAAAAAAAAAAAAAAAAAAAAAAAAAAAAAAAAAAAAAAAAAAAAAAAAAAAAAAAAAAAAAAAAAAAAAAAAAAAAAAAAAAAAAAAAAAAAAAAAAAAAAAAAAAAAAAAAAAAAAAAAAAAAAAAAAAAAAAAAAAAAAAAAAAAAAAAAAAAAAAAAAAAAAAAAAAAAAAAAAAAAAAAAAAAAAAAAAAAAAAAAAAAAAAAAAAAAAAAAAAAAAAAAAAAAAAAAAAAAAAAAAAAAAAAAAAAAAAAAAAAAAAAAAAAAAAAAAAAAAAAAAAAAAAAAAAAAAAAAAAAAAAAAAAAAAAAAAAAAAAAAAAAAAAAAAAAAAAAAAAAAAAAAAAAAAAAAAAAAAAAAAAAAAAAAAAAAAAAAAAAAAAAAAAAAAAAAAAAAAAAAAAAAAAAAAAAAAAAAAAAAAAAAAAAAAAAAAAAAAAAAAAAAAAAAAAAAAAAAAAAAAAAAAAAAAAAAAAAAAAAAAAAAAAAAAAAAAAAAAAAAAAAAAAAAAAAAAAAAAAAAAAAAAAAAAAAAAAAAAAAAAAAAAAAAAAAAAAAAAAAAAAAAAAAAAAAAAAAAAAAAAAAAAAAAAAAAAAAAAAAAAAAAAAAAAAAAAAAAAAAAAAAAAAAAAAAAAAAAAAAAAAAAAAAAAAAAAAAAAAAAAAAAAAAAAAAAAAAAAAAAAAAAAAAAAAAAAAAAAAAAAAAAAAAAAAAAAAAAAAAAAAAAAAAAAAAAAAAAAAAAAAAAAAAAAAAAAAAAAAAAAAAAAAAAAAAAAAAAAAAAAAAAAAAAAAAAAAAAAAAAAAAAAAAAAAAAAAAAAAAAAAAAAAAAAAAAAAAAAAAAAAAAAAAAAAAAAAAAAAAAAAAAAAAAAAAAAAAAAAAAAAAAAAAAAAAAAAAAAAAAAAAAAAAAAAAAAAAAAAAAAAAAAAAAAAAAAAAAAAAAAAAAAAAAAAAAAAAAAAAAAAAAAAAAAAAAAAAAAAAAAAAAAAAAAAAAAAAAAAAAAAAAAAAAAAAAAAAAAAAAAAAAAAAAAAAAAAAAAAAAAAAAAAAAAAAAAAAAAAAAAAAAAAAAAAAAAAAAAAAAAAAAAAAAAAAAAAAAAAAAAAAAAAAAAAAAAAAAAAAAAAAAAAAAAAAAAAAAAAAAAAAAAAAAAAAAAAAAAAAAAAAAAAAAAAAAAAAAAAAAAAAAAAAAAAAAAAAAAAAAAAAAAAAAAAAAAAAAAAAAAAAAAAAAAAAAAAAAAAAAAAAAAAAAAAAAAAAAAAAAAAAAAAAAAAAAAAAAAAAAAAAAAAAAAAAAAAAAAAAAAAAAAAAAAAAAAAAAAAAAAAAAAAAAAAAAAAAAAAAAAAAAAAAAAAAAAAAAAAAAAAAAAAAAAAAAAAAAAAAAAAAAAAAAAAAAAAAAAAAAAAAAAAAAAAAAAAAAAAAAAAAAAAAAAAAAAAAAAAAAAAAAAAAAAAAAAAAAAAAAAAAAAAAAAAAAAAAAAAAAAAAAAAAAAAAAAAAAAAAAAAAAAAAAAAAAAAAAAAAAAAAAAAAAAAAAAAAAAAAAAAAAAAAAAAAAAAAAAAAAAAAAAAAAAAAAAAAAAAAAAAAAAAAAAAAAAAAAAAAAAAAAAAAAAAAAAAAAPZYQIpmU/2uh2QuiOkn9w5AuhAH/sstjyKIfdT0UVw6zPEJhIgYsx9l0BFywfukySceGrfPnQ/FwLOYbzVgZVvJ+A8=</c2pa:manifest></metadata>
<path d="M406.611 10.7625C452.519 8.58817 491.502 44.0361 493.69 89.9461C495.878 135.856 460.443 174.851 414.535 177.053C368.609 179.256 329.594 143.801 327.404 97.8719C325.216 51.9424 360.682 12.938 406.611 10.7625ZM478.931 91.6463C477.68 53.9224 446.137 24.3256 408.413 25.4764C370.545 26.6318 340.811 58.3194 342.068 96.1854C343.324 134.051 375.089 163.7 412.951 162.344C450.67 160.993 480.182 129.37 478.931 91.6463Z" fill="#FEFEFD"></path>
<path d="M407.592 69.6365C420.953 68.0135 433.112 77.4917 434.8 90.8437C436.488 104.196 427.072 116.402 413.727 118.156C400.293 119.921 387.982 110.423 386.283 96.9786C384.582 83.5339 394.14 71.2707 407.592 69.6365Z" fill="#FEFEFD"></path>
<path d="M358.376 186.424C369.559 185.294 381.91 188.34 389.986 196.539C399.303 206 398.57 214.383 398.528 226.411L398.513 247.634L398.419 335.947C393.028 335.889 387.638 335.865 382.247 335.876C382.37 321.292 382.415 306.709 382.386 292.126C370.376 292.27 358.057 292.079 346.002 292.087C345.031 292.094 345.015 291.942 344.301 292.361C344.115 293.337 344.241 303.314 344.243 304.984L344.22 335.894C339.224 335.706 334.199 335.774 329.197 335.798C329.333 321.277 328.977 306.672 329.205 292.081C321.152 292.12 313.098 292.094 305.045 292C307.759 287.878 311.131 282.538 313.599 278.322C318.207 278.547 324.316 278.366 329.037 278.361C329.254 260.731 328.935 243.046 329.032 225.411C329.056 221.172 328.814 216.842 329.623 212.663C330.707 207.119 333.128 201.922 336.672 197.523C342.335 190.632 349.635 187.295 358.376 186.424ZM376.942 207.007C372.682 202.71 367.159 200.861 361.185 201.584C341.205 205.693 344.01 224.248 343.966 239.812L344.008 278.359L365.369 278.336L382.792 278.367L382.873 237.982C382.886 233.538 383.255 221.127 382.491 217.378C381.677 213.46 379.751 209.859 376.942 207.007Z" fill="#FEFEFD"></path>
<path d="M44.6245 121.403C46.4562 121.12 48.6837 120.557 50.5694 120.198L50.332 120.77C48.287 121.485 46.7863 121.08 45.7891 122.618C45.441 126.002 45.5282 131.711 45.4968 135.333C45.4405 143.384 45.435 151.434 45.48 159.484C45.4915 161.468 45.9043 168.938 45.1348 170.136L44.6663 170.165L44.4106 169.927C44.9673 169.054 44.9592 125.699 44.6245 121.403Z" fill="#0091FA"></path>
<path d="M27.2627 0C55.0595 0.23646 85.1477 11.349 94.0723 40.0391C98.8791 55.4919 97.9199 74.4269 90.6816 89.0215C82.4192 105.68 67.7126 114.603 50.5703 120.197L50.332 120.77C48.2874 121.484 46.7871 121.08 45.79 122.617C45.442 126.002 45.5285 131.711 45.4971 135.333C45.4408 143.383 45.4355 151.434 45.4805 159.484C45.492 161.468 45.9052 168.938 45.1357 170.137L44.667 170.165L44.4111 169.927C41.3969 169.551 30.856 169.732 27.2852 169.714C27.1841 153.617 27.1871 137.518 27.2949 121.421C18.3926 121.233 8.95336 121.384 0 121.362C2.34061 115.526 6.34238 108.99 8.9375 103.091L27.0635 103.115C27.0666 68.9994 26.7332 34.076 27.2627 0ZM44.9219 73.9541C44.9208 82.4541 45.3667 95.1689 44.876 103.351C54.5762 101.762 60.6984 99.0806 68.0645 92.416C83.3708 76.8255 83.6271 45.5152 67.6523 30.2217C61.7372 24.559 53.1306 19.9994 44.9766 18.9658L44.9219 73.9541Z" fill="#FEFEFD"></path>
<path d="M54.0117 173.25C71.5248 173.312 84.729 174.487 100.055 184.229C125.437 200.362 130.627 241.727 114.913 265.942C105.788 280.005 87.4138 290.799 71.2227 294.078C71.3546 301.375 71.2527 308.947 71.252 316.268L71.1826 341.869C65.3646 341.733 59.5444 341.712 53.7256 341.807C53.4058 326.284 53.66 309.671 53.709 294.099L27.2432 293.882C29.679 287.731 33.1663 281.523 35.4629 275.582C41.6059 275.655 47.8239 275.601 53.9727 275.593L54.0117 173.25ZM71.5244 275.095C80.1158 273.493 88.0339 268.984 94.3838 263.051C110.267 247.07 109.837 219.198 93.9395 203.332C88.7948 198.198 78.8597 192.341 71.5625 191.39L71.5244 275.095Z" fill="#FEFEFD"></path>
<path d="M164.892 18.6077C170.076 18.6388 175.259 18.6391 180.442 18.6087C180.364 23.5522 180.417 28.6467 180.407 33.6025L180.453 131.312C180.452 133.093 180.457 134.878 180.369 136.647C179.588 152.495 168.693 166.997 152.199 168.646C140.46 170 128.714 167.69 120.179 158.863C114.913 153.417 111.143 145.618 110.495 137.984C110.122 133.593 110.261 128.952 110.267 124.514L110.326 100.526L110.328 18.6461L126.271 18.6736C126.08 45.4174 126.511 72.5909 126.539 99.3873C126.55 106.995 126.51 114.602 126.419 122.209C126.375 126.147 126.113 133.141 126.668 136.787C127.335 141.012 129.29 144.928 132.267 148C139.376 155.221 152.047 155.696 159.299 148.452C162.168 145.535 164.049 141.791 164.675 137.749C165.177 134.479 164.986 128.635 164.97 125.147L164.918 104.55L164.892 18.6077Z" fill="#FEFEFD"></path>
<path d="M222.701 19.7051C223.69 19.6349 224.681 19.5912 225.673 19.5742C242.43 19.3805 256.56 28.9943 261.592 45.5605C262.809 49.5712 262.336 58.0062 262.336 62.4472L262.33 83.8219C262.325 112.09 262.09 140.703 262.404 168.944C257.235 168.754 251.503 168.871 246.293 168.881L246.241 91.7865L246.25 68.2465C246.265 63.5985 246.402 58.9076 246.149 54.2698C245.674 45.5307 240.424 38.3068 232.117 35.5147C230.317 35.1564 228.483 34.9959 226.648 35.0365C221.356 35.1799 217.025 36.9927 213.326 40.7885C206.888 47.3955 207.992 56.0647 207.965 64.5148L207.965 90.8856C207.979 116.438 207.494 143.378 208.096 168.856C203.125 168.759 197.781 168.875 192.782 168.892L192.783 85.4804L192.758 62.4464C192.754 57.9789 192.336 51.7836 193.22 47.5745C196.375 32.5616 207.442 21.3079 222.701 19.7051Z" fill="#FEFEFD"></path>
<path d="M252.82 186.428C270.619 184.471 286.93 196.245 291.086 213.485C292.326 218.631 291.858 227.508 291.873 233.08L292.072 256.044C292.193 282.452 292.755 309.418 292.413 335.774C287.458 335.567 281.611 335.68 276.586 335.648C277.086 311.897 276.626 286.637 276.592 262.804L276.542 236.221C276.526 230.852 276.636 225.398 276.202 220.054C275.529 211.826 269.282 204.474 261.328 202.335C255.146 201.098 247.848 202.865 243.285 207.332C236.418 214.054 237.366 223.458 237.374 232.198L237.386 254.406L237.302 335.79C232.258 335.617 226.77 335.698 221.69 335.688L221.81 252.181L221.845 229.949C221.848 217.915 221.311 208.878 229.674 198.945C236.068 191.35 242.777 187.424 252.82 186.428Z" fill="#FEFEFD"></path>
<path d="M186.375 190.974C188.23 192.46 193.695 201.194 195.96 203.79L195.719 203.978C176.771 218.918 152.042 252.741 149.145 276.925L175.188 276.88C174.903 281.327 174.996 288.294 175.114 292.801C167.128 292.419 157.253 292.704 149.13 292.764C150.614 304.087 154.914 315.042 166.512 319.002C176.184 322.303 188.18 321.525 197.354 317.197C198.11 319.829 199.467 323.363 200.398 326.019C201.039 327.904 201.587 330.019 202.13 331.947C197.117 333.314 192.451 334.525 187.28 335.159C171.287 337.114 153.768 332.191 143.668 319.021C137.516 310.996 135.211 302.629 134.087 292.738C130.166 292.613 125.923 292.725 121.979 292.762C121.848 287.501 121.963 282.196 121.862 276.917L133.959 276.817C136.684 250.168 158.072 219.316 176.205 200.202C179.172 197.075 183.058 193.803 186.375 190.974Z" fill="#FEFEFD"></path>
<path d="M416.925 186.098C422.45 186.176 428.232 186.068 433.777 186.049C433.387 200.55 433.83 217.268 433.851 231.952L433.788 319.636C444.353 319.934 456.267 319.67 467.026 319.754C468.471 324.012 472.182 331.06 474.161 335.892C468.018 336.125 458.753 335.808 452.401 335.756L417.027 335.688L416.925 186.098Z" fill="#FEFEFD"></path>
<path d="M275.395 19.3314C278.321 19.7501 289.476 19.5596 292.839 19.5635C304.993 19.5999 317.145 19.5418 329.296 19.3889C329.247 24.5115 329.257 29.6345 329.333 34.7565C322.751 34.5086 315.752 34.7874 309.058 34.6165L309.032 157.574C309.024 161.352 309.039 165.13 309.079 168.907C303.868 168.853 298.654 168.861 293.441 168.931C293.629 156.114 293.378 142.762 293.342 129.907C293.203 98.3215 293.226 66.7358 293.417 35.1509L266.607 35.0766C269.449 29.7803 272.38 24.5313 275.395 19.3314Z" fill="#FEFEFD"></path>
</svg>