<svg xmlns="http://www.w3.org/2000/svg" viewBox="544 23 508 356" xmlns:c2pa="http://c2pa.org/manifest"><metadata><c2pa:manifest>AAAWgmp1bWIAAAAeanVtZGMycGEAEQAQgAAAqgA4m3EDYzJwYQAAABZcanVtYgAAAEdqdW1kYzJtYQARABCAAACqADibcQN1cm46YzJwYTpmNjU3OTlmNy1hODUxLTQ2NDktODk1Ny1mN2Q5ZDc4M2ZiYzMAAAADl2p1bWIAAAApanVtZGMyYXMAEQAQgAAAqgA4m3EDYzJwYS5hc3NlcnRpb25zAAAAALxqdW1iAAAARGp1bWRjYm9yABEAEIAAAKoAOJtxE2MycGEuaW5ncmVkaWVudC52MwAAAAAYYzJzaEUnW9tO5C8WdAOZZVUGXEYAAABwY2JvcqNpZGM6Zm9ybWF0bWltYWdlL3N2Zyt4bWxqaW5zdGFuY2VJRHgseG1wOmlpZDowZjMxYjgwOC1kNWRmLTQxZmYtYWJiZS1kYzdlMmI4YzJjYzhscmVsYXRpb25zaGlwaHBhcmVudE9mAAAB4mp1bWIAAABBanVtZGNib3IAEQAQgAAAqgA4m3ETYzJwYS5hY3Rpb25zLnYyAAAAABhjMnNobQoPNoktOsCOdjXvfWxKoQAAAZljYm9yomdhY3Rpb25zgqJmYWN0aW9ua2MycGEub3BlbmVkanBhcmFtZXRlcnOha2luZ3JlZGllbnRzgaJjdXJseC1zZWxmI2p1bWJmPWMycGEuYXNzZXJ0aW9ucy9jMnBhLmluZ3JlZGllbnQudjNkaGFzaFggsA/Mr+C2P0/f6mp7af4mTWU3Y7VGZZMTfjAHpOQ7mGSkZmFjdGlvbngdY29tLmFudGhyb3BpYy5jbGF1ZGUucHJvdmlkZWRqcGFyYW1ldGVyc6F4H2NvbS5hbnRocm9waWMub3JpZ2luLWNvbmZpZGVuY2VndW5rbm93bmtkZXNjcmlwdGlvbnhmQ2xhdWRlIHByb3ZpZGVkIHRoaXMgZmlsZSBhdCB0aGUgcmVxdWVzdCBvZiBhIHVzZXIgYW5kIG1heSBoYXZlIGNyZWF0ZWQgb3IgbW9kaWZpZWQgdGhlIGZpbGUgY29udGVudHMubXNvZnR3YXJlQWdlbnShZG5hbWVmQ2xhdWRlcmFsbEFjdGlvbnNJbmNsdWRlZPUAAADIanVtYgAAAEBqdW1kY2JvcgARABCAAACqADibcRNjMnBhLmhhc2guZGF0YQAAAAAYYzJzaNUT9cByjtZ3ocrBEQSg4OAAAACAY2JvcqVjYWxnZnNoYTI1NmNwYWRNAAAAAAAAAAAAAAAAAGRoYXNoWCD8INn9Eqk3Yo35Y0Q099Ne1msFxVmIyXVtPtTvql7oUWRuYW1lbmp1bWJmIG1hbmlmZXN0amV4Y2x1c2lvbnOBomVzdGFydBiAZmxlbmd0aBkeBAAAAj5qdW1iAAAAJ2p1bWRjMmNsABEAEIAAAKoAOJtxA2MycGEuY2xhaW0udjIAAAACD2Nib3KlY2FsZ2ZzaGEyNTZpc2lnbmF0dXJleE1zZWxmI2p1bWJmPS9jMnBhL3VybjpjMnBhOmY2NTc5OWY3LWE4NTEtNDY0OS04OTU3LWY3ZDlkNzgzZmJjMy9jMnBhLnNpZ25hdHVyZWppbnN0YW5jZUlEeCx4bXA6aWlkOmMzMzg0OTdhLThlMzctNDcwNi04MmJiLTUwYWU1MmZmYmFjZXJjcmVhdGVkX2Fzc2VydGlvbnODomN1cmx4LXNlbGYjanVtYmY9YzJwYS5hc3NlcnRpb25zL2MycGEuaW5ncmVkaWVudC52M2RoYXNoWCCwD8yv4LY/T9/qantp/iZNZTdjtUZlkxN+MAek5DuYZKJjdXJseCpzZWxmI2p1bWJmPWMycGEuYXNzZXJ0aW9ucy9jMnBhLmFjdGlvbnMudjJkaGFzaFgg6iKf48QehWbkofP6Jh07idh5SOWlEZo6uxzAx+veZsmiY3VybHgpc2VsZiNqdW1iZj1jMnBhLmFzc2VydGlvbnMvYzJwYS5oYXNoLmRhdGFkaGFzaFggz4RBj+bnXJp5J97bJXgtwnWbLhlksMB4huqVMqvfTO90Y2xhaW1fZ2VuZXJhdG9yX2luZm+jZG5hbWVvQW50aHJvcGljIEZpbGVzZ3ZlcnNpb25lMS4wLjBrc3BlY1ZlcnNpb25lMi40LjAAABA4anVtYgAAAChqdW1kYzJjcwARABCAAACqADibcQNjMnBhLnNpZ25hdHVyZQAAABAIY2JvctKEWQISogEmGCFZAgowggIGMIIBjaADAgECAhRA5aAK7sI50L64g/oGQgU9Z1UTADAKBggqhkjOPQQDAzBJMRcwFQYDVQQKEw5BbnRocm9waWMsIFBCQzEuMCwGA1UEAxMlQW50aHJvcGljIENvbnRlbnQgQ3JlZGVudGlhbHMgUm9vdCBDQTAeFw0yNjA4MDcxODQzNTZaFw0yODA4MDYxOTQzNTZaMEQxFzAVBgNVBAoTDkFudGhyb3BpYywgUEJDMSkwJwYDVQQDEyBBbnRocm9waWMgQ2xhdWRlIENvbnRlbnQgU2lnbmluZzBZMBMGByqGSM49AgEGCCqGSM49AwEHA0IABJh6CmvLUBgFFNU0vUKlOVtE6djd17L5SuwX0LemFisBM3dkd/3cyjxFA3Qo5S46fX0/ihY0VZ7mfb9KF703t5OjWDBWMA4GA1UdDwEB/wQEAwIHgDAVBgNVHSUEDjAMBgorBgEEAYPoXgIBMAwGA1UdEwEB/wQCMAAwHwYDVR0jBBgwFoAUzlHiBIFOZFsj+OPEz5o+nMHXXMIwCgYIKoZIzj0EAwMDZwAwZAIwMXMdFJ4BetLLVY7ORuE9noqbbAZOZn/aArXyTwFAZfKrPzxF2vPoJNf1+UCdg1XGAjBwX1zd9WGqYkqmL5SFqw1QySjr1zJfpJM9+1rdDwSPLMOPOjKuiXjoU/pUUeG9RwmhY3BhZFkNngAAAAAAAAAAAAAAAAAAAAAAAAAAAAAAAAAAAAAAAAAAAAAAAAAAAAAAAAAAAAAAAAAAAAAAAAAAAAAAAAAAAAAAAAAAAAAAAAAAAAAAAAAAAAAAAAAAAAAAAAAAAAAAAAAAAAAAAAAAAAAAAAAAAAAAAAAAAAAAAAAAAAAAAAAAAAAAAAAAAAAAAAAAAAAAAAAAAAAAAAAAAAAAAAAAAAAAAAAAAAAAAAAAAAAAAAAAAAAAAAAAAAAAAAAAAAAAAAAAAAAAAAAAAAAAAAAAAAAAAAAAAAAAAAAAAAAAAAAAAAAAAAAAAAAAAAAAAAAAAAAAAAAAAAAAAAAAAAAAAAAAAAAAAAAAAAAAAAAAAAAAAAAAAAAAAAAAAAAAAAAAAAAAAAAAAAAAAAAAAAAAAAAAAAAAAAAAAAAAAAAAAAAAAAAAAAAAAAAAAAAAAAAAAAAAAAAAAAAAAAAAAAAAAAAAAAAAAAAAAAAAAAAAAAAAAAAAAAAAAAAAAAAAAAAAAAAAAAAAAAAAAAAAAAAAAAAAAAAAAAAAAAAAAAAAAAAAAAAAAAAAAAAAAAAAAAAAAAAAAAAAAAAAAAAAAAAAAAAAAAAAAAAAAAAAAAAAAAAAAAAAAAAAAAAAAAAAAAAAAAAAAAAAAAAAAAAAAAAAAAAAAAAAAAAAAAAAAAAAAAAAAAAAAAAAAAAAAAAAAAAAAAAAAAAAAAAAAAAAAAAAAAAAAAAAAAAAAAAAAAAAAAAAAAAAAAAAAAAAAAAAAAAAAAAAAAAAAAAAAAAAAAAAAAAAAAAAAAAAAAAAAAAAAAAAAAAAAAAAAAAAAAAAAAAAAAAAAAAAAAAAAAAAAAAAAAAAAAAAAAAAAAAAAAAAAAAAAAAAAAAAAAAAAAAAAAAAAAAAAAAAAAAAAAAAAAAAAAAAAAAAAAAAAAAAAAAAAAAAAAAAAAAAAAAAAAAAAAAAAAAAAAAAAAAAAAAAAAAAAAAAAAAAAAAAAAAAAAAAAAAAAAAAAAAAAAAAAAAAAAAAAAAAAAAAAAAAAAAAAAAAAAAAAAAAAAAAAAAAAAAAAAAAAAAAAAAAAAAAAAAAAAAAAAAAAAAAAAAAAAAAAAAAAAAAAAAAAAAAAAAAAAAAAAAAAAAAAAAAAAAAAAAAAAAAAAAAAAAAAAAAAAAAAAAAAAAAAAAAAAAAAAAAAAAAAAAAAAAAAAAAAAAAAAAAAAAAAAAAAAAAAAAAAAAAAAAAAAAAAAAAAAAAAAAAAAAAAAAAAAAAAAAAAAAAAAAAAAAAAAAAAAAAAAAAAAAAAAAAAAAAAAAAAAAAAAAAAAAAAAAAAAAAAAAAAAAAAAAAAAAAAAAAAAAAAAAAAAAAAAAAAAAAAAAAAAAAAAAAAAAAAAAAAAAAAAAAAAAAAAAAAAAAAAAAAAAAAAAAAAAAAAAAAAAAAAAAAAAAAAAAAAAAAAAAAAAAAAAAAAAAAAAAAAAAAAAAAAAAAAAAAAAAAAAAAAAAAAAAAAAAAAAAAAAAAAAAAAAAAAAAAAAAAAAAAAAAAAAAAAAAAAAAAAAAAAAAAAAAAAAAAAAAAAAAAAAAAAAAAAAAAAAAAAAAAAAAAAAAAAAAAAAAAAAAAAAAAAAAAAAAAAAAAAAAAAAAAAAAAAAAAAAAAAAAAAAAAAAAAAAAAAAAAAAAAAAAAAAAAAAAAAAAAAAAAAAAAAAAAAAAAAAAAAAAAAAAAAAAAAAAAAAAAAAAAAAAAAAAAAAAAAAAAAAAAAAAAAAAAAAAAAAAAAAAAAAAAAAAAAAAAAAAAAAAAAAAAAAAAAAAAAAAAAAAAAAAAAAAAAAAAAAAAAAAAAAAAAAAAAAAAAAAAAAAAAAAAAAAAAAAAAAAAAAAAAAAAAAAAAAAAAAAAAAAAAAAAAAAAAAAAAAAAAAAAAAAAAAAAAAAAAAAAAAAAAAAAAAAAAAAAAAAAAAAAAAAAAAAAAAAAAAAAAAAAAAAAAAAAAAAAAAAAAAAAAAAAAAAAAAAAAAAAAAAAAAAAAAAAAAAAAAAAAAAAAAAAAAAAAAAAAAAAAAAAAAAAAAAAAAAAAAAAAAAAAAAAAAAAAAAAAAAAAAAAAAAAAAAAAAAAAAAAAAAAAAAAAAAAAAAAAAAAAAAAAAAAAAAAAAAAAAAAAAAAAAAAAAAAAAAAAAAAAAAAAAAAAAAAAAAAAAAAAAAAAAAAAAAAAAAAAAAAAAAAAAAAAAAAAAAAAAAAAAAAAAAAAAAAAAAAAAAAAAAAAAAAAAAAAAAAAAAAAAAAAAAAAAAAAAAAAAAAAAAAAAAAAAAAAAAAAAAAAAAAAAAAAAAAAAAAAAAAAAAAAAAAAAAAAAAAAAAAAAAAAAAAAAAAAAAAAAAAAAAAAAAAAAAAAAAAAAAAAAAAAAAAAAAAAAAAAAAAAAAAAAAAAAAAAAAAAAAAAAAAAAAAAAAAAAAAAAAAAAAAAAAAAAAAAAAAAAAAAAAAAAAAAAAAAAAAAAAAAAAAAAAAAAAAAAAAAAAAAAAAAAAAAAAAAAAAAAAAAAAAAAAAAAAAAAAAAAAAAAAAAAAAAAAAAAAAAAAAAAAAAAAAAAAAAAAAAAAAAAAAAAAAAAAAAAAAAAAAAAAAAAAAAAAAAAAAAAAAAAAAAAAAAAAAAAAAAAAAAAAAAAAAAAAAAAAAAAAAAAAAAAAAAAAAAAAAAAAAAAAAAAAAAAAAAAAAAAAAAAAAAAAAAAAAAAAAAAAAAAAAAAAAAAAAAAAAAAAAAAAAAAAAAAAAAAAAAAAAAAAAAAAAAAAAAAAAAAAAAAAAAAAAAAAAAAAAAAAAAAAAAAAAAAAAAAAAAAAAAAAAAAAAAAAAAAAAAAAAAAAAAAAAAAAAAAAAAAAAAAAAAAAAAAAAAAAAAAAAAAAAAAAAAAAAAAAAAAAAAAAAAAAAAAAAAAAAAAAAAAAAAAAAAAAAAAAAAAAAAAAAAAAAAAAAAAAAAAAAAAAAAAAAAAAAAAAAAAAAAAAAAAAAAAAAAAAAAAAAAAAAAAAAAAAAAAAAAAAAAAAAAAAAAAAAAAAAAAAAAAAAAAAAAAAAAAAAAAAAAAAAAAAAAAAAAAAAAAAAAAAAAAAAAAAAAAAAAAAAAAAAAAAAAAAAAAAAAAAAAAAAAAAAAAAAAAAAAAAAAAAAAAAAAAAAAAAAAAAAAAAAAAAAAAAAAAAAAAAAAAAAAAAAAAAAAAAAAAAAAAAAAAAAAAAAAAAAAAAAAAAAAAAAAAAAAAAAAAAAAAAAAAAAAAAAAAAAAAAAAAAAAAAAAAAAAAAAAAAAAAAAAAAAAAAAAAAAAAAAAAAAAAAAAAAAAAAAAAAAAAAAAAAAAAAAAAAAAAAAAAAAAAAAAAAAAAAAAAAAAAAAAAAAAAAAAAAAAAAAAAAAAAAAAAAAAAAAAAAAAAAAAAAAAAAAAAAAAAAAAAAAAAAAAAAAAAAAAAAAAAAAAAAAAAAAAAAAAAAAAAAAAAAAAAAAAAAAAAAAAAAAAAAAAAAAAAAAAAAAAAAAAAAAAAAAAAAAAAAAAAAAAAAAAAAAAAAAAAAAAAAAAAAAAAAAAAAAAAAAAAAAAAAAAAAAAAAAAAAAAAAAAAAAAAAAAAAAAAAAAAAAAAAAAAAAAAAAAAAAAAAAAAAAAAAAAAAAAAAAAAAAAAAAAAAAAAAAAAAAAAAAAAAAAAAAAAAAAAAAAAAAAAAAAAAAAAAAAAAAAAAAAAAAAAAAAAAAAAAAAAAAAAAAAAAAAAAAAAAAAAAAAAAAAAAAAAAAAAAAAAAAAAAAAAAAAAAAAAAAAAAAAAAAAAAAAAAAAAAAAAAAAAAAAAAAAAAAAAAAAAAAAAAAAAAAAAAAAAAAAAAAAAAAAAAAAAAAAAAAAAAAAAAAAAAAAAAAAAAAAAAAAAAAAAAAAAAAAAAAAAAAAAAAAAAAAAAAAAAAAAAAAAAAAAAAAAAAAAAAAAAAAAAAAAAAAAAAAAAAAAAAAAAAAAAAAAAAAAAAAAAAAAAAAAAAAAAAAAAAAAAAAAAAAAAAAAAAAAAAAAAAAAAAAAAAAAAAAAAAAAAAAAAAAAAAAAAAAAAAAAAAAAAAAAAAAAAAAAAAAAAAAAAAAAAAAAAAAAAAAAAAAAAAAAAAAAAAAAAAAAAAAAAAAAAAAAAAAAAAAAAAAAAAAAAAAAAAAAAAAAAAAAAAAAAAAAAAAAAAAAAAAAAAAAAAAAAAAAAAAAAAAAAAAAAAAAAAAAAAAAAAAAAAAAAAAAAAAAAAAAAAAAAAAAAAAAAAAAAAAAAAAAAAAAAAAAAAAAAAAAAAAAAAAAAAAAAAAAAAAAAAAAAAAAAAAAAAAAAAAAAAAAAAAAAAAAAAAAAAAAAAAAAAAAAAAAAAAAAAAAAAAAAAAAAAAAAAAAAAAAAAAAAAAAAAAAAAAAAAAAAAAAAAAAAAAAAAAAAAAAAAAAAAAAAAAAAAAAAAAAAAAAAAAAAAAAAAAAAAAAAAAAAAAAAAAAAAAAAAAAAAAAAAAAAAAAAAAAAAAAAAAAAAAAAAAAAAAAAAAAAAAAAAAAAAAAAAAAAAAAAAAAAAAAAAAAAAAAAAAAAAAAAAAAAAAAAAAAAAAAAAAAAAAAAAAAAAAAAAAAAAAAAAAAAAAAAAAAAAAAAAAAAAAAAAAAAAAAAAPZYQMlQ293ZWB/6BbUq5SeBNJUrgw84kFgQc1+VTmaHg3avqHQ1pFgBlfEfHyiSKvSxog+LBX4pJFoGsrGXAhiB4Nk=</c2pa:manifest></metadata>
<g transform="translate(0.000000,402.000000) scale(0.100000,-0.100000)" fill="#FFFFFF" fill-rule="evenodd" stroke="none">
<path d="M5716 3774 c-3 -8 -6 -241 -5 -516 0 -276 -4 -505 -8 -509 -4 -4 -44 -9 -88 -11 l-80 -3 -3 -37 c-2 -25 -10 -41 -23 -48 -12 -7 -19 -21 -19 -40 0 -20 -8 -35 -25 -46 -33 -22 -32 -34 9 -66 45 -36 128 -40 148 -8 14 22 72 28 84 9 3 -6 6 -112 5 -236 l-1 -225 39 -39 c33 -33 45 -39 81 -39 36 0 49 6 76 35 l34 34 0 207 0 207 35 33 c20 21 44 34 59 34 16 0 32 9 42 25 12 18 25 25 50 25 23 0 37 6 44 20 7 13 21 20 39 20 39 0 141 100 141 139 0 20 13 38 51 71 49 44 50 46 44 87 -5 37 -3 46 19 67 26 23 26 26 26 168 0 145 0 146 -25 162 -23 15 -25 21 -19 65 6 45 4 50 -20 66 -20 13 -26 26 -26 51 0 19 -4 34 -9 34 -5 0 -40 31 -78 70 -51 52 -75 70 -95 70 -18 0 -33 9 -44 25 -12 18 -25 25 -49 25 -24 0 -37 7 -49 25 -14 22 -24 25 -71 25 -44 0 -56 4 -65 20 -10 18 -21 20 -114 20 -85 0 -105 -3 -110 -16z m399 -359 c105 -105 105 -106 103 -152 -1 -38 3 -49 20 -61 18 -12 22 -24 22 -72 0 -48 -4 -60 -22 -72 -17 -12 -21 -23 -20 -62 l2 -47 -105 -105 c-105 -104 -134 -121 -163 -92 -9 9 -12 107 -12 378 0 271 3 369 12 378 29 29 58 12 163 -93z"></path>
<path d="M9418 3630 c-9 -13 -24 -20 -44 -20 -23 0 -36 -7 -48 -25 -12 -19 -25 -25 -51 -25 -25 0 -35 -5 -40 -20 -4 -14 -15 -20 -36 -20 -25 0 -52 -21 -160 -130 -96 -95 -129 -134 -125 -147 7 -21 -3 -37 -26 -46 -12 -4 -18 -17 -18 -41 0 -25 -6 -38 -25 -50 -23 -15 -25 -22 -25 -96 0 -70 -2 -79 -20 -85 -19 -6 -20 -15 -20 -135 0 -119 2 -130 20 -140 17 -9 20 -21 20 -89 0 -73 2 -80 25 -95 19 -12 25 -25 25 -51 0 -19 4 -35 8 -35 4 0 25 -15 45 -34 25 -22 37 -42 37 -60 0 -40 149 -186 190 -186 19 0 33 -7 40 -20 7 -13 21 -20 40 -20 20 0 35 -8 46 -25 12 -18 25 -25 49 -25 24 0 37 -7 49 -25 15 -23 22 -25 94 -25 66 0 79 -3 90 -20 18 -29 113 -29 133 0 13 18 26 20 132 21 112 1 120 2 140 25 12 14 32 24 47 24 16 0 35 10 48 25 12 14 33 25 47 25 36 0 275 238 275 274 0 18 14 39 45 68 42 40 45 46 45 94 0 41 4 54 21 66 21 13 21 20 21 223 -1 116 -1 213 -2 217 0 4 -9 10 -20 13 -17 5 -20 15 -20 65 0 51 -3 60 -25 74 -19 12 -25 25 -25 51 0 19 -4 35 -8 35 -4 0 -25 15 -45 34 -25 22 -37 42 -37 60 0 37 -99 136 -137 136 -20 0 -39 13 -67 45 -29 33 -47 45 -67 45 -19 0 -34 8 -45 25 -12 18 -25 25 -50 25 -23 0 -37 6 -44 20 -10 19 -21 20 -250 20 -229 0 -240 -1 -252 -20z m454 -225 c13 -15 32 -25 48 -25 16 0 35 -10 49 -26 15 -17 28 -23 41 -19 28 9 140 -104 140 -142 0 -20 13 -39 45 -67 43 -37 45 -42 45 -91 0 -45 4 -55 25 -69 25 -16 25 -17 25 -181 0 -164 0 -165 -25 -181 -18 -12 -25 -25 -25 -49 0 -25 -5 -35 -19 -40 -21 -6 -36 -38 -26 -54 3 -5 -42 -57 -99 -115 -81 -82 -111 -106 -131 -106 -17 0 -35 -9 -47 -25 -18 -23 -26 -25 -94 -25 -63 0 -76 -3 -86 -20 -11 -17 -24 -20 -93 -20 -69 0 -82 3 -93 20 -10 16 -23 20 -66 20 -46 0 -56 3 -70 25 -11 17 -26 25 -46 25 -19 0 -34 7 -42 20 -8 12 -24 20 -40 20 -42 0 -148 109 -148 151 0 22 -5 32 -20 36 -15 4 -20 14 -20 39 0 25 -7 38 -25 50 -22 14 -25 23 -25 74 0 50 -3 60 -20 65 -24 8 -22 -3 -24 114 -1 92 7 121 35 121 5 0 9 26 9 59 0 52 3 61 25 75 16 10 25 26 25 42 0 36 202 238 230 229 13 -4 24 2 36 20 12 18 25 25 49 25 24 0 37 7 49 25 l16 25 185 0 c185 0 185 0 207 -25z"></path>
<path d="M9604 3085 c-12 -18 -25 -25 -49 -25 -24 0 -37 -7 -49 -25 -12 -19 -25 -25 -51 -25 -33 0 -35 -2 -35 -35 0 -26 -6 -39 -25 -51 -24 -16 -25 -19 -25 -135 l0 -119 57 -55 c40 -39 64 -55 83 -55 18 0 33 -8 44 -25 16 -24 21 -25 111 -25 l95 0 80 80 c62 63 80 87 80 109 0 20 8 34 25 45 37 24 33 74 -7 89 -14 5 -18 18 -18 62 0 54 -1 57 -57 110 -53 52 -59 55 -106 55 -41 0 -53 4 -69 25 -11 14 -30 25 -43 25 -15 0 -31 -10 -41 -25z"></path>
<path d="M8537 3563 l-288 -3 -35 -34 c-29 -28 -34 -40 -34 -77 0 -24 4 -49 8 -56 5 -8 44 -13 112 -15 l105 -3 5 -680 5 -680 110 0 110 0 5 680 5 680 80 3 c44 2 84 7 89 12 5 5 8 31 7 57 -1 40 3 50 26 69 24 19 26 24 14 38 -7 9 -19 15 -25 14 -6 -2 -141 -4 -299 -5z"></path>
<path d="M6587 3553 c-4 -3 -7 -305 -7 -670 l0 -664 104 -105 105 -104 160 0 161 0 105 105 105 106 -1 659 c-1 362 -5 664 -9 670 -4 7 -37 10 -91 8 l-84 -3 -3 -603 -2 -602 -55 -55 -54 -55 -71 0 -71 0 -55 55 -55 55 0 589 c1 325 -2 597 -5 605 -5 13 -23 16 -88 16 -46 0 -86 -3 -89 -7z"></path>
<path d="M7502 3455 l-102 -104 1 -653 c1 -364 6 -661 11 -670 7 -15 24 -18 108 -18 55 0 102 4 105 10 3 5 6 287 5 626 l-1 616 60 59 c68 66 95 73 130 33 14 -17 28 -23 40 -19 13 4 31 -5 55 -29 l37 -34 -1 -620 c0 -519 2 -621 14 -631 9 -8 48 -11 112 -9 l99 3 3 632 c2 624 2 632 -18 643 -11 6 -20 21 -20 35 0 33 -10 55 -25 55 -14 0 -25 22 -25 51 0 32 -62 89 -96 89 -18 0 -34 7 -42 20 -11 19 -23 20 -180 19 l-167 0 -103 -104z"></path>
<path d="M5995 1998 c-3 -7 -6 -242 -8 -523 l-2 -510 -78 -3 c-74 -3 -80 -5 -113 -37 -24 -24 -34 -43 -34 -66 0 -23 -5 -32 -20 -36 -24 -6 -37 -49 -23 -72 8 -13 36 -17 139 -21 l129 -5 5 -245 5 -245 108 -3 c59 -1 108 -1 109 0 1 2 5 113 8 248 l5 245 30 3 c17 2 40 14 53 28 18 19 33 24 71 24 l49 0 126 126 c105 106 125 130 120 149 -4 18 1 28 20 40 20 13 26 26 26 51 0 24 6 37 18 41 9 4 20 11 24 17 3 5 6 81 6 168 0 127 -3 161 -15 173 -8 8 -19 15 -24 15 -5 0 -9 15 -9 34 0 25 -6 38 -25 50 -17 11 -25 26 -25 46 0 23 -19 48 -100 129 -82 82 -106 101 -130 101 -19 0 -33 7 -40 20 -9 16 -21 20 -65 20 -47 0 -57 3 -71 25 -16 24 -19 25 -140 25 -91 0 -126 -3 -129 -12z m311 -283 c11 -17 25 -25 45 -25 41 0 99 -58 99 -99 0 -20 7 -34 20 -41 16 -9 20 -21 20 -64 0 -46 3 -56 25 -70 17 -11 25 -26 25 -45 0 -20 -8 -34 -25 -45 -22 -14 -25 -24 -25 -71 0 -44 -4 -56 -20 -65 -13 -7 -20 -21 -20 -40 0 -22 -15 -43 -61 -89 -53 -53 -65 -61 -99 -61 -75 0 -70 -28 -70 370 0 277 3 359 13 363 30 13 57 6 73 -18z"></path>
<path d="M7828 1770 c-66 -67 -98 -107 -98 -122 0 -28 -9 -42 -32 -51 -17 -6 -18 -45 -18 -633 l0 -626 36 -33 c32 -30 41 -33 102 -33 37 0 73 5 80 10 9 8 12 147 12 634 0 607 1 624 19 634 13 7 21 23 23 48 l3 37 105 3 c92 2 107 1 120 -16 8 -10 23 -21 33 -25 16 -6 17 -45 17 -632 l0 -626 33 -33 c32 -31 38 -34 103 -34 38 0 75 5 82 10 9 8 12 156 12 678 l0 668 -25 16 c-19 12 -25 25 -25 51 0 19 -4 35 -9 35 -5 0 -31 23 -57 50 -35 37 -55 50 -75 50 -18 0 -32 7 -39 20 -10 19 -21 20 -158 19 l-147 0 -97 -99z"></path>
<path d="M9008 1850 c-8 -13 -24 -20 -42 -20 -38 0 -96 -58 -96 -96 0 -18 -12 -37 -37 -60 -20 -19 -41 -34 -45 -34 -4 0 -8 -159 -8 -353 0 -261 -3 -356 -12 -365 -7 -7 -43 -12 -89 -12 -69 0 -78 -2 -84 -20 -3 -11 -4 -24 0 -29 3 -6 -8 -24 -25 -41 -34 -35 -33 -31 -20 -64 9 -26 11 -26 114 -26 85 0 105 -3 110 -16 3 -9 6 -109 6 -224 0 -180 2 -209 16 -214 9 -3 56 -6 104 -6 78 0 91 2 100 19 6 12 10 97 8 219 0 109 2 204 6 210 5 8 53 12 156 12 132 0 149 -2 155 -17 3 -10 5 -97 4 -194 l-2 -177 34 -35 c32 -33 38 -35 100 -35 36 0 71 3 77 7 10 6 13 165 13 678 l0 671 -31 31 c-18 17 -35 31 -40 31 -10 0 -20 25 -20 51 0 33 -62 89 -98 89 -22 0 -32 6 -37 20 -6 19 -15 20 -156 20 -138 0 -150 -1 -161 -20z m287 -244 l35 -33 0 -320 c0 -235 -3 -322 -12 -331 -15 -15 -294 -17 -303 -2 -4 6 -6 157 -6 336 l0 324 28 30 c27 28 31 29 126 30 98 0 98 0 132 -34z"></path>
<path d="M9697 1863 c-4 -3 -7 -358 -7 -788 0 -653 2 -784 14 -794 9 -8 95 -11 284 -11 l270 1 27 25 c14 13 30 24 36 24 16 0 10 40 -8 47 -25 9 -34 25 -27 46 4 12 -6 29 -30 53 l-35 34 -138 0 -138 1 -40 35 -40 35 28 22 27 23 0 601 c0 588 0 602 -19 608 -11 3 -23 15 -26 26 -6 17 -16 19 -89 19 -45 0 -86 -3 -89 -7z"></path>
<path d="M7213 1704 c-90 -90 -123 -130 -123 -148 0 -25 -3 -29 -64 -85 -27 -24 -36 -39 -33 -53 4 -13 -3 -28 -19 -43 -15 -14 -24 -33 -24 -52 0 -22 -7 -36 -25 -47 -18 -12 -25 -25 -25 -50 0 -25 -5 -35 -20 -39 -15 -4 -20 -14 -20 -40 0 -26 -6 -39 -24 -51 -21 -13 -25 -25 -28 -73 l-3 -58 -55 -3 c-30 -2 -60 -8 -66 -13 -17 -14 -17 -194 0 -208 6 -5 36 -11 66 -13 l55 -3 3 -58 c3 -48 7 -60 28 -73 16 -11 24 -26 24 -45 0 -41 139 -179 180 -179 19 0 33 -8 44 -25 14 -22 24 -25 70 -25 46 0 56 -4 69 -24 15 -22 23 -24 91 -24 68 0 77 3 90 24 13 19 26 24 73 26 l58 3 3 78 c3 76 2 78 -31 112 -41 42 -77 46 -101 10 -16 -24 -21 -25 -115 -25 -94 0 -99 1 -115 25 -11 17 -26 25 -44 25 -18 0 -37 9 -50 25 -12 14 -26 25 -32 25 -5 0 -10 15 -10 34 0 25 -6 38 -26 50 -48 32 -25 41 117 46 l134 5 0 110 0 110 -110 5 -110 5 -3 62 c-3 54 -1 62 17 68 21 6 36 38 26 55 -3 5 5 21 19 34 18 16 26 34 26 56 0 23 5 33 20 37 10 3 22 13 25 24 3 10 15 21 26 24 13 5 19 15 19 37 0 26 21 51 142 170 132 131 141 141 123 154 -10 8 -22 14 -27 14 -4 0 -8 14 -8 30 0 38 -58 100 -92 99 -16 0 -63 -41 -145 -125z"></path>
</g>
</svg>